<?xml version="1.0" encoding="UTF-8" standalone="no"?>
<svg
   xmlns="http://www.w3.org/2000/svg"
   width="210mm"
   height="50mm"
   viewBox="0 0 210 50"
   >
  <g>
    <g
       transform="matrix(0.31325268,0,0,0.31325268,18.186072,-29.35662)">
      <path
         style="fill:#fefefe;stroke-width:0.264583"
         d="m -7.6880393,245.58871 c -17.5147497,-2.3947 -32.1317617,-14.4563 -37.6735027,-31.08722 -1.826646,-5.48182 -2.130753,-7.57761 -2.130753,-14.68438 0,-5.61797 0.06946,-6.67025 0.602515,-9.12812 2.671783,-12.31929 9.522341,-22.50521 19.718202,-29.31851 7.259889,-4.85136 16.442831,-7.71191 24.7859183,-7.72099 l 1.99508799,-0.002 1.43813481,-4.29948 c 1.7312904,-5.1759 5.1557211,-12.22128 8.0656033,-16.59405 6.4739946,-9.72868 15.6405206,-18.25 25.3137066,-23.53194 l 2.030534,-1.10876 14.930297,22.30409 c 8.211664,12.26725 16.097451,24.06027 17.523973,26.2067 1.426522,2.14643 2.664304,3.90144 2.750627,3.90001 0.08632,-0.001 3.458504,-4.92694 7.493736,-10.94559 4.035232,-6.01864 7.879863,-11.54702 8.54362,-12.28528 0.723832,-0.80507 1.854775,-1.66607 2.825785,-2.15128 1.502338,-0.75079 1.8225,-0.80906 4.444849,-0.80906 2.616787,0 2.944625,0.0593 4.430366,0.80176 0.88635,0.44292 1.91642,1.21077 2.30146,1.71558 1.53301,2.00986 1.47026,0.70231 1.47026,30.6376 0,27.2167 -0.006,27.545 -0.54249,28.65278 -1.08916,2.24991 -3.493218,3.39329 -6.815059,3.24128 -2.576907,-0.11792 -4.32026,-0.93931 -5.472324,-2.5783 l -0.796171,-1.13268 -0.07119,-19.45499 -0.07119,-19.45498 -5.680416,8.29899 c -3.124229,4.56445 -6.153552,8.85166 -6.731833,9.52712 -1.557147,1.81885 -3.329528,2.60834 -5.855648,2.60834 -2.655257,0 -4.350422,-0.83072 -6.06294,-2.97117 -0.655251,-0.81899 -8.037444,-11.90244 -16.40487,-24.62989 l -15.213502,-23.14083 -0.699635,0.49819 c -1.41649,1.00863 -6.121048,5.66715 -8.089644,8.01048 -4.067894,4.84225 -8.014917,11.65448 -10.228635,17.65375 -0.80685,2.18661 -1.395564,4.33318 -2.81431,10.26159 -0.532566,2.2254 -2.5037782,4.17553 -4.8883011,4.83603 -0.7819866,0.21661 -1.7214453,0.21411 -3.5743436,-0.01 -10.4446228,-1.26047 -19.8127933,1.74397 -27.0776623,8.68401 -7.121474,6.80305 -10.982835,16.9902 -9.977903,26.32395 1.212649,11.26303 7.525216,20.61878 17.487307,25.91766 1.230927,0.65474 3.357589,1.55622 4.725914,2.0033 5.0444055,1.64818 3.4040047,1.5929 47.518386,1.60121 l 40.216667,0.008 4.431771,6.67948 c 2.437473,3.67372 4.43177,6.76642 4.43177,6.87266 0,0.10625 -20.27039,0.1809 -45.045312,0.16591 -35.3506592,-0.0214 -45.5862771,-0.10123 -47.5588543,-0.37093 z M 285.72011,195.1126 l 22.00148,-43.81344 -1.5345,-0.96854 c -2.64623,-1.67023 -6.16471,-5.46966 -6.16471,-6.65697 0,-0.28058 3.63458,-0.34508 19.44687,-0.34508 h 19.44688 v 2.4474 c 0,4.68502 0.50564,64.45714 0.66484,78.71354 l 0.16029,14.35364 h -10.59924 -10.59921 l -0.0132,-32.60989 -0.0132,-32.60989 -12.22362,24.36569 c -7.51211,14.97404 -12.73138,25.07031 -13.54093,26.19375 -6.13889,8.51925 -15.99387,13.98546 -26.29344,14.58401 l -2.7399,0.15923 L 285.72,195.1126 Z m 255.33768,36.7191 c 0.34177,-0.36381 0.68094,-0.66146 0.7537,-0.66146 0.0728,0 -0.14735,0.29765 -0.48911,0.66146 -0.34176,0.3638 -0.68093,0.66146 -0.75369,0.66146 -0.0728,0 0.14734,-0.29766 0.4891,-0.66146 z M 39.374044,224.35722 c -0.329108,-0.41965 -0.319749,-0.42901 0.0999,-0.0999 0.254661,0.19972 0.463021,0.40808 0.463021,0.46302 0,0.21777 -0.217274,0.0776 -0.562917,-0.36312 z M 527.69634,211.85566 c 0.26339,-0.29105 0.53842,-0.52917 0.61118,-0.52917 0.0728,0 -0.0832,0.23812 -0.3466,0.52917 -0.26339,0.29104 -0.53843,0.52916 -0.61119,0.52916 -0.0728,0 0.0832,-0.23812 0.34661,-0.52916 z m -317.25206,-8.00365 -0.77711,-0.8599 0.85989,0.77711 c 0.80156,0.72437 0.98153,0.94269 0.77711,0.94269 -0.0455,0 -0.43249,-0.38696 -0.85989,-0.8599 z m 143.92484,-0.26458 -0.50403,-0.59532 0.59531,0.50403 c 0.55943,0.47367 0.71575,0.6866 0.50403,0.6866 -0.0502,0 -0.31811,-0.26789 -0.59531,-0.59531 z M 220.6746,181.10102 c 0.96539,-2.43844 10.31055,-26.46001 10.96412,-28.18305 l 0.62794,-1.6554 -1.87981,-1.23843 c -2.49388,-1.64297 -4.49064,-3.62975 -5.34757,-5.32081 l -0.69882,-1.37902 15.40285,0.0683 15.40288,0.0683 1.98421,6.28175 c 1.98086,6.27107 1.98515,6.28092 2.5282,5.79538 0.29919,-0.2675 3.7855,-3.12549 7.74737,-6.35108 l 7.20339,-5.86472 9.90542,0.0693 9.90542,0.0693 -6.33326,16.40416 c -3.48329,9.02229 -6.87625,17.80315 -7.53991,19.51302 l -1.20663,3.10886 h -9.9305 c -9.33058,0 -9.92267,-0.028 -9.80093,-0.46302 0.17854,-0.63813 6.56399,-17.07116 6.75489,-17.38376 0.0846,-0.13859 -1.14798,0.64435 -2.73913,1.73987 -10.85892,7.47652 -10.41222,7.20277 -10.66173,6.53389 -2.71547,-7.27972 -4.40584,-11.59365 -4.54289,-11.59365 -0.0945,0 -2.01531,4.73273 -4.26853,10.51719 l -4.0968,10.51719 -9.96567,0.0693 -9.96569,0.0693 z m 122.73458,1.18745 c -0.003,-0.10914 0.74144,-2.13219 1.65364,-4.49567 l 1.65852,-4.29723 17.03088,-0.0684 17.03086,-0.0684 1.12197,-2.91041 1.12199,-2.91042 -16.52675,-0.0681 c -13.04142,-0.0538 -16.49862,-0.13747 -16.39345,-0.39688 0.0733,-0.1808 1.34829,-3.42436 2.83329,-7.2079 3.27401,-8.34162 3.89694,-9.55547 5.81017,-11.32205 1.78337,-1.64666 3.3891,-2.55119 6.20726,-3.4967 4.64695,-1.55906 4.16703,-1.52844 25.75075,-1.64273 10.95045,-0.058 19.90612,-0.009 19.90146,0.10824 -0.005,0.11752 -0.75745,2.11866 -1.67296,4.44699 l -1.66452,4.23334 -15.15951,0.13229 -15.15952,0.13229 -1.12194,2.91042 -1.12194,2.91041 16.49921,0.0681 c 9.07457,0.0375 16.49825,0.15653 16.49709,0.26458 -0.008,0.76209 -6.1735,15.58848 -6.99995,16.83359 -2.21586,3.33835 -6.89883,5.71759 -13.10627,6.65882 -2.02576,0.30716 -6.55714,0.38143 -23.34948,0.38269 -11.45976,7.9e-4 -20.83813,-0.0877 -20.8408,-0.19688 z m 75.94356,-1.19063 c 0.28874,-0.76398 2.89647,-7.52078 5.79496,-15.0151 l 5.26997,-13.62604 -3.88046,-0.13229 c -3.70136,-0.12619 -3.9415,-0.16817 -5.2029,-0.90954 -1.62779,-0.95671 -4.98443,-4.27667 -6.29952,-6.23068 -0.53734,-0.79842 -0.977,-1.54256 -0.977,-1.65365 0,-0.11108 12.5611,-0.20197 27.91355,-0.20197 15.35244,0 27.91354,0.0773 27.91354,0.17184 0,0.0945 -0.74414,2.11648 -1.65365,4.49326 l -1.65364,4.32143 -8.17653,0.0708 -8.17652,0.0708 -5.12009,13.22917 c -2.81604,7.27604 -5.42755,14.03283 -5.80337,15.0151 l -0.68329,1.78594 h -9.89504 -9.89502 z m 49.03433,1.19063 c 0.0665,-0.10914 2.58752,-6.56828 5.60229,-14.35365 3.01474,-7.78536 5.69904,-14.708 5.96508,-15.38364 l 0.48371,-1.22844 -1.62763,-1.00463 c -2.12302,-1.31042 -4.75269,-3.95831 -5.60875,-5.64765 l -0.67998,-1.34189 h 29.7701 c 24.56762,0 29.77007,0.0614 29.77007,0.35126 0,0.1932 -0.28167,1.0564 -0.62592,1.91823 -0.34428,0.86184 -1.07096,2.72783 -1.61486,4.14666 l -0.98888,2.57969 h -14.48798 -14.48797 l -1.09511,2.84556 c -0.6023,1.56505 -1.09511,2.93427 -1.09511,3.04271 0,0.10843 5.89359,0.19714 13.09687,0.19714 7.20328,0 13.0963,0.0298 13.09561,0.0661 0,0.0364 -0.76618,2.03068 -1.70104,4.43177 l -1.69973,4.36563 -13.22692,0.0686 -13.22694,0.0686 -1.15599,2.97412 -1.156,2.97413 14.36415,0.0684 c 7.90028,0.0376 14.36704,0.15668 14.37053,0.26458 0.003,0.1079 -0.73932,2.13094 -1.65076,4.49566 l -1.65714,4.29948 h -24.42631 c -13.43448,0 -24.37191,-0.0893 -24.30539,-0.19844 z m 62.88114,0.094 c 0,-0.0574 2.60191,-6.81422 5.78202,-15.01511 3.18013,-8.20088 5.86473,-15.17128 5.9658,-15.48977 0.15653,-0.4932 -0.0396,-0.72195 -1.32231,-1.54251 -2.66062,-1.70198 -5.51572,-4.73181 -6.04147,-6.41123 l -0.18637,-0.59532 h 32.16471 32.1647 v 0.62681 c 0,1.40823 -0.84336,5.3147 -1.58765,7.35415 -2.29108,6.27772 -7.12444,11.27721 -13.64134,14.11021 l -1.90235,0.827 9.39252,8.05394 9.39252,8.05394 -10.02112,0.0774 c -11.57451,0.0894 -12.05349,0.0286 -16.43729,-2.08596 -2.94031,-1.41826 -2.36596,-0.93884 -11.77869,-9.83153 -2.88806,-2.72851 -5.33811,-4.96094 -5.44452,-4.96094 -0.10642,0 -1.66333,3.81 -3.4598,8.46667 l -3.26636,8.46667 h -9.8865 c -5.43758,0 -9.8865,-0.047 -9.8865,-0.1044 z m 40.80084,-24.73797 c 2.11699,-0.6823 3.82387,-1.91512 4.63547,-3.34806 1.18203,-2.08687 1.52408,-1.98933 -6.69919,-1.91011 l -7.30039,0.0703 -0.60981,1.49921 c -0.33541,0.82456 -0.86394,2.17842 -1.17456,3.00857 l -0.56473,1.50937 4.96922,-0.12865 c 4.1294,-0.10691 5.26912,-0.22532 6.74399,-0.70066 z M 175.66821,146.37128 c -0.64268,-0.65484 -1.10898,-1.19062 -1.03622,-1.19062 0.0728,0 0.65812,0.53578 1.3008,1.19062 0.64268,0.65485 1.10898,1.19063 1.03622,1.19063 -0.0728,0 -0.65812,-0.53578 -1.3008,-1.19063 z m -62.5991,-14.22135 -0.50402,-0.59531 0.59531,0.50403 c 0.32742,0.27721 0.59531,0.5451 0.59531,0.59531 0,0.21173 -0.21293,0.0554 -0.6866,-0.50403 z m -2.38125,-2.38125 -0.50402,-0.59531 0.59531,0.50403 c 0.55944,0.47366 0.71576,0.68659 0.50403,0.68659 -0.0502,0 -0.3181,-0.26789 -0.59532,-0.59531 z"
         />
      <path
         style="fill:#cee7f7;stroke-width:0.264583"
         d="m 137.76665,245.81168 c 0.1819,-0.0734 0.47956,-0.0734 0.66146,0 0.1819,0.0734 0.0331,0.13345 -0.33073,0.13345 -0.3638,0 -0.51263,-0.0601 -0.33073,-0.13345 z m 3.19153,-0.2701 c 0.191,-0.0764 0.41921,-0.067 0.50712,0.0209 0.0879,0.0879 -0.0684,0.15045 -0.34726,0.13896 -0.30823,-0.0127 -0.37092,-0.0754 -0.15986,-0.15985 z m -35.23153,-13.24686 c -0.11151,-0.1802 10.65334,-0.17733 24.30094,0.006 2.91041,0.0392 -1.33904,0.0984 -9.44324,0.13162 -8.1042,0.0332 -14.79017,-0.0289 -14.8577,-0.13809 z m 33.11487,-0.24689 c 0.19099,-0.0764 0.4192,-0.067 0.50712,0.0209 0.0879,0.0879 -0.0684,0.15045 -0.34727,0.13896 -0.30823,-0.0127 -0.37092,-0.0754 -0.15985,-0.15985 z m 33.91627,-0.44832 c 0,-0.0549 0.20836,-0.2633 0.46302,-0.46302 0.41965,-0.32911 0.42901,-0.31975 0.0999,0.0999 -0.34564,0.44073 -0.56292,0.58089 -0.56292,0.36313 z m 85.19584,-1.6199 c 0.49366,-0.50932 0.95707,-0.92604 1.02984,-0.92604 0.0728,0 -0.2716,0.41672 -0.76526,0.92604 -0.49366,0.50933 -0.95708,0.92605 -1.02984,0.92605 -0.0728,0 0.2716,-0.41672 0.76526,-0.92605 z m 122.92888,-1.7682 c 0.0764,-0.12364 0.24977,-0.1563 0.38523,-0.0726 0.34618,0.21395 0.30721,0.29738 -0.13893,0.29738 -0.21188,0 -0.32271,-0.10116 -0.2463,-0.2248 z m 141.12528,-1.93596 c 0.34177,-0.36381 0.68094,-0.66146 0.7537,-0.66146 0.0728,0 -0.14735,0.29765 -0.48911,0.66146 -0.34176,0.3638 -0.68093,0.66146 -0.75369,0.66146 -0.0728,0 0.14734,-0.29766 0.4891,-0.66146 z m -344.22291,0.29698 c 0,-0.0549 0.20836,-0.2633 0.46302,-0.46302 0.41964,-0.32911 0.429,-0.31975 0.0999,0.0999 -0.34564,0.44073 -0.56291,0.58089 -0.56291,0.36313 z m 65.0875,-2.67823 c 0.34176,-0.36381 0.68093,-0.66146 0.75369,-0.66146 0.0728,0 -0.14735,0.29765 -0.48911,0.66146 -0.34176,0.3638 -0.68093,0.66146 -0.75369,0.66146 -0.0728,0 0.14735,-0.29766 0.48911,-0.66146 z m 269.82486,-0.85939 c 2.08248,-0.0448 5.41623,-0.0446 7.40833,2.4e-4 1.9921,0.0449 0.28827,0.0815 -3.78632,0.0814 -4.07458,-1.4e-4 -5.70449,-0.0369 -3.62201,-0.0816 z m 7.93803,-8.44948 c 0.191,-0.0764 0.4192,-0.067 0.50712,0.0209 0.0879,0.0879 -0.0684,0.15045 -0.34726,0.13896 -0.30824,-0.0127 -0.37092,-0.0754 -0.15986,-0.15985 z m 31.05742,-14.23905 c 0.005,-0.43656 0.0647,-0.58312 0.13179,-0.32569 0.0671,0.25743 0.0627,0.61462 -0.01,0.79375 -0.0725,0.17913 -0.12734,-0.0315 -0.12197,-0.46806 z m -359.33485,-6.10746 c 0.0127,-0.30823 0.0754,-0.37092 0.15986,-0.15986 0.0764,0.191 0.067,0.4192 -0.0209,0.50712 -0.0879,0.0879 -0.15047,-0.0684 -0.13899,-0.34726 z m 0.28548,-3.02066 c 0,-0.36381 0.0601,-0.51263 0.13346,-0.33073 0.0734,0.1819 0.0734,0.47955 0,0.66146 -0.0734,0.1819 -0.13346,0.0331 -0.13346,-0.33073 z m -13.4688,-3.57188 c 0.003,-0.58208 0.0571,-0.78905 0.1204,-0.45993 0.0633,0.32911 0.0609,0.80536 -0.005,1.05833 -0.0662,0.25296 -0.11801,-0.0163 -0.11507,-0.5984 z M 64.014044,185.7942 c 0.341776,-0.3638 0.68094,-0.66146 0.7537,-0.66146 0.07276,0 -0.147341,0.29766 -0.489117,0.66146 -0.341775,0.3638 -0.680939,0.66146 -0.7537,0.66146 -0.07276,0 0.147341,-0.29766 0.489117,-0.66146 z m 10.690487,-0.19844 -0.504029,-0.59531 0.595313,0.50403 c 0.327422,0.27721 0.595312,0.5451 0.595312,0.59531 0,0.21173 -0.212934,0.0554 -0.686596,-0.50403 z m 117.938789,-1.52135 c 0,-0.36381 0.0601,-0.51263 0.13346,-0.33073 0.0734,0.1819 0.0734,0.47955 0,0.66146 -0.0734,0.1819 -0.13346,0.0331 -0.13346,-0.33073 z m -59.23431,-41.20522 c 0.69561,-0.0547 1.76717,-0.054 2.38125,0.002 0.61407,0.0555 0.0449,0.10023 -1.26476,0.0994 -1.30969,-8e-4 -1.81211,-0.0462 -1.11649,-0.10089 z m -19.42247,-9.79322 c -0.3291,-0.41964 -0.31975,-0.429 0.0999,-0.0999 0.44073,0.34565 0.58089,0.56292 0.36312,0.56292 -0.0549,0 -0.2633,-0.20836 -0.46302,-0.46302 z m 16.12373,-3.68647 c 0.19099,-0.0764 0.4192,-0.067 0.50712,0.0209 0.0879,0.0879 -0.0684,0.15045 -0.34727,0.13896 -0.30823,-0.0127 -0.37092,-0.0754 -0.15985,-0.15985 z m 8.46666,0 c 0.191,-0.0764 0.41921,-0.067 0.50712,0.0209 0.0879,0.0879 -0.0683,0.15045 -0.34726,0.13896 -0.30823,-0.0127 -0.37092,-0.0754 -0.15986,-0.15985 z m -28.82372,-0.54686 c -0.32911,-0.41965 -0.31975,-0.42901 0.0999,-0.0999 0.44073,0.34565 0.58088,0.56292 0.36312,0.56292 -0.0549,0 -0.2633,-0.20836 -0.46302,-0.46302 z m 14.02292,-5.29167 c -0.32911,-0.41964 -0.31975,-0.429 0.0999,-0.0999 0.44073,0.34564 0.58089,0.56291 0.36313,0.56291 -0.0549,0 -0.2633,-0.20836 -0.46302,-0.46302 z m -4.6216,-4.63021 -0.50403,-0.59531 0.59531,0.50403 c 0.55945,0.47366 0.71577,0.6866 0.50403,0.6866 -0.0502,0 -0.31809,-0.2679 -0.59531,-0.59532 z m -54.396345,-5.14167 c 0.190994,-0.0764 0.4192,-0.067 0.507119,0.0209 0.08792,0.0879 -0.06835,0.15045 -0.347266,0.13897 -0.308226,-0.0127 -0.370919,-0.0754 -0.159853,-0.15985 z m 10.583333,0 c 0.190995,-0.0764 0.419201,-0.067 0.507119,0.0209 0.08792,0.0879 -0.06835,0.15045 -0.347266,0.13897 -0.308226,-0.0127 -0.370919,-0.0754 -0.159853,-0.15985 z m -5.569701,-0.27098 c 0.329117,-0.0633 0.805367,-0.0609 1.058333,0.005 0.252965,0.0662 -0.01633,0.118 -0.598398,0.11506 -0.582083,-0.003 -0.789053,-0.0571 -0.459935,-0.1204 z m -7.130299,-13.22277 c 0.190995,-0.0764 0.419201,-0.067 0.507119,0.0209 0.08792,0.0879 -0.06835,0.15045 -0.347266,0.13897 -0.308226,-0.0127 -0.370919,-0.0754 -0.159853,-0.15985 z m 3.29579,-0.2672 c 0.257432,-0.06708 0.614619,-0.06267 0.79375,0.01 0.179131,0.0725 -0.03149,0.12736 -0.468056,0.12197 -0.436562,-0.005 -0.583125,-0.0647 -0.325694,-0.13177 z m 7.800173,0.008 c 0.181902,-0.0734 0.479558,-0.0734 0.661459,0 0.181901,0.0734 0.03307,0.13345 -0.330729,0.13345 -0.363802,0 -0.512631,-0.0601 -0.33073,-0.13345 z"
         />
      <path
         style="fill:#aed8f4;stroke-width:0.264583"
         d="m 52.504669,223.76191 c 0.26339,-0.29105 0.538422,-0.52917 0.611182,-0.52917 0.07276,0 -0.08321,0.23812 -0.346599,0.52917 -0.26339,0.29104 -0.538421,0.52916 -0.611182,0.52916 -0.07276,0 0.08321,-0.23812 0.346599,-0.52916 z m 375.162521,-19.9099 -0.7771,-0.8599 0.85989,0.77711 c 0.80156,0.72437 0.98153,0.94269 0.77711,0.94269 -0.0455,0 -0.43249,-0.38696 -0.8599,-0.8599 z m -261.66872,-47.88958 -1.04588,-1.12448 1.12447,1.04588 c 1.04576,0.97267 1.24607,1.20308 1.04589,1.20308 -0.0432,0 -0.54924,-0.50602 -1.12448,-1.12448 z m -45.39734,-14.41979 c -0.32911,-0.41965 -0.31975,-0.42901 0.0999,-0.0999 0.44073,0.34564 0.58089,0.56292 0.36313,0.56292 -0.0549,0 -0.2633,-0.20836 -0.46302,-0.46302 z m 2.25757,-18.91771 -0.50403,-0.59531 0.59531,0.50403 c 0.32742,0.27721 0.59531,0.5451 0.59531,0.59531 0,0.21173 -0.21293,0.0554 -0.68659,-0.50403 z m -2.64584,-2.64583 -0.50402,-0.59532 0.59531,0.50403 c 0.32742,0.27722 0.59531,0.54511 0.59531,0.59531 0,0.21174 -0.21293,0.0554 -0.6866,-0.50402 z"
         />
      <path
         style="fill:#90caef;stroke-width:0.264583"
         d="m 135.64998,245.80018 c 0.32742,-0.0631 0.8632,-0.0631 1.19063,0 0.32742,0.0631 0.0595,0.11466 -0.59532,0.11466 -0.65484,0 -0.92273,-0.0516 -0.59531,-0.11466 z m 102.12917,-7.13225 c 0.1819,-0.0734 0.47956,-0.0734 0.66146,0 0.1819,0.0734 0.0331,0.13345 -0.33073,0.13345 -0.3638,0 -0.51263,-0.0601 -0.33073,-0.13345 z m 287.8832,-0.006 c 0.191,-0.0764 0.41921,-0.067 0.50713,0.0209 0.0879,0.0879 -0.0684,0.15045 -0.34727,0.13896 -0.30824,-0.0127 -0.37092,-0.0754 -0.15986,-0.15985 z m -389.88008,-6.35165 c 0.25466,-0.0665 0.67138,-0.0665 0.92604,0 0.25467,0.0666 0.0463,0.121 -0.46302,0.121 -0.50932,0 -0.71768,-0.0545 -0.46302,-0.121 z m 39.75365,-3.52178 c 0.86401,-0.87313 1.63046,-1.5875 1.70323,-1.5875 0.0728,0 -0.57463,0.71437 -1.43865,1.5875 -0.86401,0.87312 -1.63046,1.5875 -1.70322,1.5875 -0.0728,0 0.57462,-0.71438 1.43864,-1.5875 z m -9.525,-9.525 c 0.71666,-0.72761 1.36256,-1.32292 1.43532,-1.32292 0.0728,0 -0.45407,0.59531 -1.17074,1.32292 -0.71666,0.7276 -1.36255,1.32292 -1.43531,1.32292 -0.0728,0 0.45407,-0.59532 1.17073,-1.32292 z m 378.61875,-4.49792 c 0.26339,-0.29104 0.53843,-0.52916 0.61119,-0.52916 0.0728,0 -0.0832,0.23812 -0.34661,0.52916 -0.26339,0.29104 -0.53842,0.52917 -0.61119,0.52917 -0.0728,0 0.0832,-0.23813 0.34661,-0.52917 z m 1.32292,-1.32291 c 0.26339,-0.29105 0.53842,-0.52917 0.61118,-0.52917 0.0728,0 -0.0832,0.23812 -0.3466,0.52917 -0.26339,0.29104 -0.53843,0.52916 -0.61119,0.52916 -0.0728,0 0.0832,-0.23812 0.34661,-0.52916 z m -55.70903,-9.72344 -0.91181,-0.99219 0.99219,0.9118 c 0.5457,0.50149 0.99219,0.94797 0.99219,0.99219 0,0.20204 -0.22389,0.0117 -1.07257,-0.9118 z M 192.66827,189.49836 c 0.003,-0.58208 0.0571,-0.78905 0.12041,-0.45993 0.0633,0.32912 0.0609,0.80537 -0.005,1.05833 -0.0662,0.25297 -0.118,-0.0163 -0.11507,-0.5984 z m -13.49909,-0.13229 c 0,-0.50932 0.0545,-0.71768 0.121,-0.46302 0.0666,0.25466 0.0666,0.67138 0,0.92604 -0.0665,0.25467 -0.121,0.0463 -0.121,-0.46302 z m 0.005,-3.57187 c 0.003,-0.58209 0.0571,-0.78906 0.12041,-0.45994 0.0633,0.32912 0.0609,0.80537 -0.005,1.05834 -0.0662,0.25296 -0.118,-0.0163 -0.11506,-0.5984 z m 13.49376,0 c 0.003,-0.58209 0.0571,-0.78906 0.12041,-0.45994 0.0633,0.32912 0.0609,0.80537 -0.005,1.05834 -0.0662,0.25296 -0.11801,-0.0163 -0.11507,-0.5984 z m -25.2359,-28.37656 c -0.32911,-0.41965 -0.31975,-0.42901 0.0999,-0.0999 0.44073,0.34564 0.58089,0.56292 0.36313,0.56292 -0.0549,0 -0.2633,-0.20836 -0.46302,-0.46302 z m -2.91042,-2.91042 c -0.32911,-0.41964 -0.31975,-0.429 0.0999,-0.0999 0.25466,0.19972 0.46302,0.40808 0.46302,0.46302 0,0.21777 -0.21728,0.0776 -0.56292,-0.36312 z m 12.7,-6.35 c -0.32911,-0.41964 -0.31975,-0.429 0.0999,-0.0999 0.25466,0.19972 0.46302,0.40808 0.46302,0.46303 0,0.21776 -0.21728,0.0776 -0.56292,-0.36313 z m -3.43958,-3.43958 c -0.32911,-0.41965 -0.31975,-0.42901 0.0999,-0.0999 0.25466,0.19972 0.46302,0.40808 0.46302,0.46302 0,0.21776 -0.21727,0.0776 -0.56291,-0.36312 z m -42.36573,-1.82888 c 0.1819,-0.0734 0.47956,-0.0734 0.66146,0 0.1819,0.0734 0.0331,0.13346 -0.33073,0.13346 -0.3638,0 -0.51263,-0.0601 -0.33073,-0.13346 z m 5.55625,0 c 0.1819,-0.0734 0.47956,-0.0734 0.66146,0 0.1819,0.0734 0.0331,0.13346 -0.33073,0.13346 -0.3638,0 -0.51263,-0.0601 -0.33073,-0.13346 z m -24.96212,-12.06175 -0.50403,-0.59531 0.59531,0.50403 c 0.32743,0.27721 0.59532,0.5451 0.59532,0.59531 0,0.21173 -0.21294,0.0554 -0.6866,-0.50403 z m 19.14128,-1.432 c 0.18191,-0.0734 0.47956,-0.0734 0.66146,0 0.1819,0.0734 0.0331,0.13346 -0.33073,0.13346 -0.3638,0 -0.51263,-0.0601 -0.33073,-0.13346 z m 6.08542,0 c 0.1819,-0.0734 0.47956,-0.0734 0.66146,0 0.1819,0.0734 0.0331,0.13346 -0.33073,0.13346 -0.3638,0 -0.51263,-0.0601 -0.33073,-0.13346 z m -15.69321,-8.093 -0.7771,-0.85989 0.85989,0.7771 c 0.47295,0.42741 0.8599,0.81436 0.8599,0.8599 0,0.2044 -0.21831,0.0245 -0.94269,-0.77711 z m -53.88912,-7.7939 c 0.329118,-0.0633 0.805368,-0.0609 1.058333,0.005 0.252966,0.0662 -0.01632,0.118 -0.598397,0.11506 -0.582084,-0.003 -0.789054,-0.0571 -0.459936,-0.1204 z m 3.96875,0 c 0.329118,-0.0633 0.805368,-0.0609 1.058333,0.005 0.252966,0.0662 -0.01632,0.118 -0.598397,0.11506 -0.582084,-0.003 -0.789054,-0.0571 -0.459936,-0.1204 z m -8.188632,-13.22277 c 0.190995,-0.0764 0.419201,-0.067 0.507119,0.0209 0.08792,0.0879 -0.06835,0.15045 -0.347266,0.13897 -0.308226,-0.0127 -0.370919,-0.0754 -0.159853,-0.15985 z m 4.088143,-0.27371 c 0.402183,-0.06081 0.997495,-0.05919 1.322917,0.004 0.325421,0.0628 -0.0036,0.11256 -0.731242,0.11058 -0.727604,-0.002 -0.993857,-0.0534 -0.591675,-0.11419 z m 3.96875,0 c 0.402183,-0.06081 0.997495,-0.05919 1.322917,0.004 0.325421,0.0628 -0.0036,0.11256 -0.731242,0.11058 -0.727604,-0.002 -0.993857,-0.0534 -0.591675,-0.11419 z"
         />
      <path
         style="fill:#6cb9eb;stroke-width:0.264583"
         d="m 108.81406,245.78857 c 4.92193,-0.0403 12.89912,-0.0403 17.72708,5e-5 4.82796,0.0403 0.80092,0.0734 -8.94897,0.0733 -9.7499,-2e-5 -13.70005,-0.0331 -8.77811,-0.0734 z m 30.82121,-0.24699 c 0.19099,-0.0764 0.4192,-0.067 0.50712,0.0209 0.0879,0.0879 -0.0684,0.15045 -0.34727,0.13896 -0.30823,-0.0127 -0.37092,-0.0754 -0.15985,-0.15985 z m 64.07869,-6.89686 c -7e-5,-0.18009 12.13152,-0.17761 27.91363,0.006 3.34697,0.0389 -1.56435,0.0981 -10.91407,0.13171 -9.34971,0.0336 -16.99953,-0.0283 -16.99956,-0.13741 z m 151.67248,5.3e-4 c 2.14643,-0.0445 5.65878,-0.0445 7.80521,0 2.14643,0.0445 0.39026,0.0809 -3.90261,0.0809 -4.29286,0 -6.04903,-0.0364 -3.9026,-0.0809 z m 34.13125,-7e-5 c 2.29195,-0.044 6.04242,-0.044 8.33437,0 2.29196,0.044 0.41672,0.0801 -4.16718,0.0801 -4.58391,0 -6.45914,-0.036 -4.16719,-0.0801 z m 43.39167,-5.3e-4 c 6.65757,-0.0394 17.55179,-0.0394 24.20937,0 6.65758,0.0394 1.21047,0.0716 -12.10469,0.0716 -13.31515,0 -18.76226,-0.0322 -12.10468,-0.0716 z m 61.11875,3e-5 c 5.78445,-0.0398 15.24992,-0.0398 21.03437,0 5.78445,0.0398 1.05172,0.0723 -10.51719,0.0723 -11.5689,0 -16.30164,-0.0325 -10.51718,-0.0723 z m -356.79063,-6.32675 c 0.1819,-0.0734 0.47956,-0.0734 0.66146,0 0.1819,0.0734 0.0331,0.13345 -0.33073,0.13345 -0.3638,0 -0.51263,-0.0601 -0.33073,-0.13345 z m 403.82031,-0.75082 c 0.34177,-0.3638 0.68094,-0.66145 0.7537,-0.66145 0.0728,0 -0.14735,0.29765 -0.48911,0.66145 -0.34176,0.36381 -0.68093,0.66146 -0.75369,0.66146 -0.0728,0 0.14734,-0.29765 0.4891,-0.66146 z m -284.69166,-0.23218 c 0,-0.055 0.20836,-0.2633 0.46302,-0.46303 0.41965,-0.3291 0.42899,-0.31974 0.0999,0.0999 -0.34565,0.44073 -0.56292,0.58089 -0.56292,0.36313 z m 252.21406,-2.21344 c 1.12779,-0.0496 2.97326,-0.0496 4.10104,0 1.12779,0.0496 0.20505,0.0902 -2.05052,0.0902 -2.25557,0 -3.17831,-0.0406 -2.05052,-0.0902 z m -249.83281,-0.16781 c 0,-0.0549 0.20836,-0.2633 0.46302,-0.46303 0.41965,-0.3291 0.42899,-0.31974 0.0999,0.0999 -0.34565,0.44073 -0.56292,0.58089 -0.56292,0.36313 z M 39.374044,224.09263 c -0.329108,-0.41964 -0.319749,-0.429 0.0999,-0.0999 0.254661,0.19972 0.463021,0.40808 0.463021,0.46302 0,0.21776 -0.217274,0.0776 -0.562917,-0.36313 z m 124.652496,-2.81187 c 0,-0.0549 0.20836,-0.2633 0.46302,-0.46302 0.41965,-0.32911 0.42901,-0.31975 0.0999,0.0999 -0.34564,0.44073 -0.56292,0.58089 -0.56292,0.36313 z M 37.68302,193.20253 c -1.3e-5,-14.6976 0.03196,-20.7491 0.07106,-13.44777 0.0391,7.30132 0.03911,19.32663 2.4e-5,26.72291 -0.03908,7.39628 -0.07107,1.42247 -0.07109,-13.27514 z m 503.04404,25.86461 c 1.20055,-0.049 3.16508,-0.049 4.36563,0 1.20055,0.049 0.21828,0.0891 -2.18281,0.0891 -2.4011,0 -3.38336,-0.0401 -2.18282,-0.0891 z m -373.26093,-1.22596 c 0,-0.0549 0.20836,-0.2633 0.46302,-0.46302 0.41964,-0.32911 0.429,-0.31975 0.0999,0.0999 -0.34564,0.44073 -0.56291,0.58089 -0.56291,0.36313 z m 360.49479,-5.98552 c 0.26339,-0.29105 0.53843,-0.52917 0.61119,-0.52917 0.0728,0 -0.0832,0.23812 -0.34661,0.52917 -0.26339,0.29104 -0.53842,0.52916 -0.61119,0.52916 -0.0728,0 0.0832,-0.23812 0.34661,-0.52916 z m -293.06211,-3.24504 c 0.11142,-0.11129 3.88583,-0.17071 8.38756,-0.13206 l 8.18497,0.0703 -8.38756,0.13205 c -4.61317,0.0726 -8.29641,0.041 -8.18497,-0.0703 z m 283.33867,-0.1278 c 2.07367,-0.0447 5.46695,-0.0447 7.54063,0 2.07367,0.0447 0.37703,0.0813 -3.77032,0.0813 -4.14734,0 -5.84398,-0.0366 -3.77031,-0.0813 z m -307.6643,-4.7631 -0.64143,-0.72761 0.72761,0.64144 c 0.68006,0.59951 0.84894,0.81377 0.64143,0.81377 -0.0474,0 -0.37481,-0.32742 -0.72761,-0.7276 z M 51.174897,185.26503 c 2.6e-5,-10.4775 0.03284,-14.72522 0.07292,-9.43939 0.04008,5.28584 0.04006,13.85834 -4.5e-5,19.05 -0.0401,5.19167 -0.0729,0.86689 -0.07287,-9.61061 z m 303.331623,18.19011 -0.64143,-0.72761 0.7276,0.64143 c 0.40018,0.35279 0.7276,0.68022 0.7276,0.72761 0,0.2075 -0.21426,0.0386 -0.81377,-0.64143 z m -146.55917,-3.57188 c 3e-5,-0.10914 14.25776,-0.16997 31.68388,-0.13518 17.42612,0.0348 26.56417,0.0942 20.30677,0.13203 -30.01036,0.1814 -51.99068,0.18273 -51.99065,0.003 z m 157.95628,0.0661 -13.89063,-0.13939 13.95677,-0.0626 c 9.16985,-0.0411 13.95677,0.0281 13.95677,0.20199 0,0.14552 -0.0298,0.23641 -0.0661,0.20198 -0.0364,-0.0344 -6.31693,-0.12532 -13.95677,-0.20198 z m 41.60573,-0.19804 c 2.58299,-0.0433 6.80971,-0.0433 9.3927,0 2.583,0.0433 0.46964,0.0788 -4.69635,0.0788 -5.16599,0 -7.27935,-0.0354 -4.69635,-0.0788 z m 32.4318,-2.6e-4 c 8.19674,-0.0388 21.53174,-0.0388 29.63333,2e-5 8.1016,0.0388 1.39518,0.0706 -14.90315,0.0706 -16.29834,-10e-6 -22.92692,-0.0318 -14.73018,-0.0706 z m 63.89701,-1e-5 c 8.85163,-0.0387 23.2582,-0.0387 32.01458,2e-5 8.75636,0.0387 1.51411,0.0703 -16.09391,0.0703 -17.60803,-1e-5 -24.77233,-0.0316 -15.92067,-0.0703 z m -311.48033,-6.8352 c 0.0127,-0.30823 0.0754,-0.37092 0.15986,-0.15985 0.0764,0.19099 0.067,0.4192 -0.0209,0.50712 -0.0879,0.0879 -0.15047,-0.0684 -0.13899,-0.34727 z m -13.20827,-2.22691 c 0,-0.3638 0.06,-0.51263 0.13345,-0.33073 0.0734,0.1819 0.0734,0.47956 0,0.66146 -0.0734,0.1819 -0.13345,0.0331 -0.13345,-0.33073 z m 13.5187,-3.04271 c 0.003,-0.58208 0.0571,-0.78905 0.12041,-0.45993 0.0633,0.32911 0.0609,0.80536 -0.005,1.05833 -0.0662,0.25296 -0.118,-0.0163 -0.11507,-0.5984 z m -13.53959,-3.19705 c 0.0127,-0.30822 0.0754,-0.37092 0.15985,-0.15985 0.0764,0.191 0.067,0.4192 -0.0209,0.50712 -0.0879,0.0879 -0.15045,-0.0684 -0.13897,-0.34727 z m 13.22916,-2.11666 c 0.0127,-0.30823 0.0754,-0.37092 0.15986,-0.15986 0.0764,0.191 0.067,0.4192 -0.0209,0.50712 -0.0879,0.0879 -0.15047,-0.0684 -0.13899,-0.34726 z M 38.878627,163.60159 c 0,-0.0549 0.20836,-0.2633 0.463021,-0.46302 0.419645,-0.3291 0.429004,-0.31975 0.0999,0.0999 -0.345643,0.44073 -0.562917,0.58089 -0.562917,0.36312 z m 4.448308,-2.19751 c 0.190994,-0.0764 0.4192,-0.067 0.507119,0.0209 0.08792,0.0879 -0.06835,0.15045 -0.347266,0.13896 -0.308226,-0.0127 -0.370919,-0.0754 -0.159853,-0.15985 z m 1.852083,0 c 0.190995,-0.0764 0.419201,-0.067 0.507119,0.0209 0.08792,0.0879 -0.06835,0.15045 -0.347266,0.13896 -0.308226,-0.0127 -0.370919,-0.0754 -0.159853,-0.15985 z m 130.346952,-14.96665 -1.31297,-1.38906 1.38906,1.31297 c 1.29075,1.22003 1.51041,1.46515 1.31298,1.46515 -0.0419,0 -0.66693,-0.62508 -1.38907,-1.38906 z m -44.88654,-3.55418 c 0.191,-0.0764 0.41921,-0.067 0.50712,0.0209 0.0879,0.0879 -0.0683,0.15045 -0.34726,0.13896 -0.30823,-0.0127 -0.37092,-0.0754 -0.15986,-0.15985 z m 7.40834,0 c 0.19099,-0.0764 0.4192,-0.067 0.50712,0.0209 0.0879,0.0879 -0.0684,0.15045 -0.34727,0.13896 -0.30823,-0.0127 -0.37092,-0.0754 -0.15985,-0.15985 z m -24.97866,-10.9979 -0.50402,-0.59532 0.59531,0.50403 c 0.32742,0.27722 0.59531,0.54511 0.59531,0.59531 0,0.21174 -0.21293,0.0554 -0.6866,-0.50402 z m -2.24384,-2.24896 -0.64143,-0.72761 0.7276,0.64144 c 0.40018,0.35279 0.7276,0.68021 0.7276,0.7276 0,0.20751 -0.21426,0.0386 -0.81377,-0.64143 z m 22.45233,-0.26152 c 0.76886,-0.0536 1.95949,-0.053 2.64583,0.001 0.68635,0.0543 0.0573,0.0982 -1.39793,0.0975 -1.45521,-7.9e-4 -2.01676,-0.0451 -1.2479,-0.0987 z M 66.329148,113.52001 c 0.181901,-0.0734 0.479557,-0.0734 0.661459,0 0.181901,0.0734 0.03307,0.13346 -0.33073,0.13346 -0.363802,0 -0.51263,-0.0601 -0.330729,-0.13346 z m 6.879167,0 c 0.181901,-0.0734 0.479557,-0.0734 0.661458,0 0.181901,0.0734 0.03307,0.13346 -0.330729,0.13346 -0.363802,0 -0.51263,-0.0601 -0.330729,-0.13346 z m 2.66237,-13.23467 c 0.190994,-0.0764 0.4192,-0.067 0.507119,0.0209 0.08792,0.0879 -0.06835,0.15045 -0.347266,0.13897 -0.308226,-0.0127 -0.370919,-0.0754 -0.159853,-0.15985 z m -6.234245,-0.26623 c 0.254661,-0.06655 0.67138,-0.06655 0.926042,0 0.254661,0.0666 0.0463,0.121 -0.463021,0.121 -0.509323,0 -0.717683,-0.0545 -0.463021,-0.121 z"
         />
      <path
         style="fill:#50ace7;stroke-width:0.264583"
         d="m 257.15988,230.55828 c 0,-0.0455 0.38695,-0.43249 0.85989,-0.85989 l 0.8599,-0.77711 -0.77711,0.8599 c -0.72437,0.80154 -0.94268,0.98151 -0.94268,0.7771 z m 264.98021,-4.15054 c 0.26339,-0.29104 0.53842,-0.52917 0.61118,-0.52917 0.0728,0 -0.0832,0.23813 -0.3466,0.52917 -0.26339,0.29104 -0.53843,0.52917 -0.61119,0.52917 -0.0728,0 0.0832,-0.23813 0.34661,-0.52917 z m -279.13542,-2.38125 c 0.26339,-0.29104 0.53843,-0.52917 0.61119,-0.52917 0.0728,0 -0.0832,0.23813 -0.34661,0.52917 -0.26339,0.29104 -0.53842,0.52917 -0.61119,0.52917 -0.0728,0 0.0832,-0.23813 0.34661,-0.52917 z M 63.484877,186.63745 c 0,-0.0455 0.386953,-0.43249 0.859896,-0.8599 l 0.859896,-0.7771 -0.777105,0.85989 c -0.724371,0.80155 -0.942687,0.98152 -0.942687,0.77711 z m 11.07875,-0.9094 c -0.329107,-0.41964 -0.319749,-0.429 0.0999,-0.0999 0.44073,0.34564 0.580888,0.56291 0.363125,0.56291 -0.05494,0 -0.2633,-0.20836 -0.463021,-0.46302 z m 39.422913,-52.91666 c -0.3291,-0.41965 -0.31975,-0.42901 0.0999,-0.0999 0.44073,0.34565 0.58089,0.56292 0.36312,0.56292 -0.0549,0 -0.2633,-0.20836 -0.46302,-0.46302 z m 9.78959,-8.99584 c -0.32911,-0.41964 -0.31975,-0.429 0.0999,-0.0999 0.44073,0.34564 0.58089,0.56292 0.36313,0.56292 -0.0549,0 -0.2633,-0.20836 -0.46302,-0.46303 z m -4.7625,-4.7625 c -0.32911,-0.41964 -0.31975,-0.429 0.0999,-0.0999 0.44073,0.34564 0.58089,0.56292 0.36313,0.56292 -0.0549,0 -0.2633,-0.20836 -0.46302,-0.46303 z"
          />
      <path
         style="fill:#3aa2e5;stroke-width:0.264583"
         d="m 98.327605,243.27493 c -0.932598,-1.34607 -7.866634,-11.70451 -15.408971,-23.01875 -7.542334,-11.31425 -13.780039,-20.56625 -13.861568,-20.56 -0.08153,0.006 -3.541512,5.08401 -7.688855,11.28391 -4.147344,6.1999 -8.103802,11.85576 -8.792126,12.56857 -0.694399,0.71911 -1.931072,1.61388 -2.778125,2.01008 -1.331806,0.62292 -1.847387,0.7124 -4.040166,0.70122 -3.847626,-0.0196 -5.997064,-1.18255 -7.306921,-3.95326 l -0.625409,-1.32292 -0.0026,-27.59335 c -0.0024,-26.60533 0.01545,-27.6285 0.500833,-28.575 0.666062,-1.2988 1.479206,-2.0257 3.036757,-2.71468 2.467801,-1.09162 5.885426,-0.66973 7.79154,0.96183 2.008654,1.71933 1.897452,0.42651 1.897452,22.05962 0,11.70346 0.09616,19.29692 0.243221,19.20603 0.13377,-0.0827 2.825975,-3.92946 5.982676,-8.54842 6.143866,-8.98986 7.730551,-10.90483 9.639948,-11.63448 2.874928,-1.09863 5.810906,-0.36065 8.000056,2.01085 0.785728,0.85118 7.850716,11.36719 16.07544,23.92778 l 14.673693,22.4092 h 15.80605 c 17.05415,0 19.32461,-0.13414 24.33675,-1.43779 15.34079,-3.99011 27.77103,-16.20026 31.93601,-31.37055 1.24003,-4.51659 1.48189,-6.5161 1.47218,-12.17083 -0.008,-4.84001 -0.0851,-5.78292 -0.71351,-8.75812 -1.26816,-6.00443 -3.44011,-11.17237 -6.83928,-16.27338 -2.7287,-4.09487 -8.02086,-9.36431 -12.14336,-12.09122 -5.07922,-3.35976 -10.25812,-5.52031 -16.29056,-6.79617 -3.55629,-0.75215 -10.13808,-0.99198 -13.86258,-0.50513 -1.52797,0.19972 -3.39621,0.34636 -4.15164,0.32585 -1.85758,-0.0504 -3.88925,-1.16331 -4.96043,-2.71716 -5.24149,-7.60326 -10.42118,-12.82495 -17.21397,-17.35357 -12.869543,-8.57985 -28.899761,-11.77217 -44.291092,-8.82029 -2.265508,0.4345 -2.806522,0.46626 -3.063009,0.1798 -0.53979,-0.60285 -7.332319,-11.10205 -7.239019,-11.18933 0.470644,-0.44031 7.267514,-2.02123 11.59832,-2.69772 4.245451,-0.66315 15.757906,-0.67822 20.041857,-0.0262 13.53453,2.05989 25.334023,7.16713 35.711283,15.45712 3.22201,2.57394 8.91045,8.29265 11.17517,11.23463 l 1.70852,2.21946 5.11844,-0.0866 c 4.11985,-0.0697 5.85249,0.0199 8.8809,0.45892 12.9646,1.87958 24.74024,7.93766 33.72866,17.35201 10.54382,11.04346 16.19142,25.06832 16.19142,40.20865 0,26.66122 -18.10123,49.82559 -44.05312,56.37532 -6.45831,1.62994 -7.8511,1.71144 -29.2478,1.71144 h -19.27738 z m 105.651025,-4.82087 c 0,-0.0685 2.68274,-7.04966 5.96164,-15.51372 3.27888,-8.46406 5.92802,-15.41174 5.88698,-15.4393 -0.0411,-0.0276 -0.9081,-0.59875 -1.92675,-1.2693 -1.01864,-0.67056 -2.40638,-1.79286 -3.08385,-2.494 -1.24976,-1.29343 -2.60469,-3.14565 -2.60469,-3.56067 0,-0.12589 14.06059,-0.22766 31.45118,-0.22766 h 31.45118 l -0.48038,2.342 c -2.60024,12.67734 -6.60368,21.26716 -12.78966,27.44156 -3.68517,3.67828 -7.03829,5.76821 -11.81407,7.36348 -4.26858,1.42584 -5.19356,1.48212 -24.35916,1.48212 -9.73082,0 -17.69242,-0.056 -17.69242,-0.12451 z m 30.4452,-9.02564 c 7.25501,-2.11479 14.0779,-9.9951 16.64973,-19.23011 l 0.4984,-1.78963 -8.37584,0.0698 -8.37583,0.0698 -1.90334,4.8948 c -1.04685,2.69213 -2.91338,7.4844 -4.14784,10.64947 l -2.24452,5.75469 h 3.2311 c 2.16606,0 3.70474,-0.13807 4.66814,-0.4189 z m 117.45688,8.87307 c 0,-0.24965 7.79907,-29.84917 8.06096,-30.5934 0.0602,-0.1711 -0.62757,-0.7766 -1.52834,-1.34554 -2.188,-1.38193 -4.17886,-3.21923 -5.18171,-4.782 -0.45196,-0.70433 -0.82174,-1.35947 -0.82174,-1.45587 0,-0.0964 6.13172,-0.17527 13.62604,-0.17527 7.49432,0 13.62604,0.096 13.62604,0.21332 0,0.11732 -1.06095,4.07615 -2.3577,8.79739 -1.29672,4.72124 -2.31677,8.62569 -2.26671,8.67655 0.05,0.0509 2.92068,-1.82442 6.37923,-4.16731 3.45853,-2.34289 6.37482,-4.17044 6.4806,-4.06123 0.10578,0.10921 1.21534,2.45306 2.46568,5.20855 1.25037,2.75548 2.32421,5.06081 2.38633,5.12293 0.0621,0.0621 2.35111,-4.36525 5.08664,-9.83862 l 4.97369,-9.95158 h 9.19591 c 5.05775,0 9.19377,0.0893 9.19115,0.19843 -0.003,0.10914 -4.33403,8.77094 -9.62535,19.24844 l -9.62063,19.05 -8.30016,0.067 -8.30014,0.067 -1.95945,-5.29255 c -1.07767,-2.9109 -2.06139,-5.29255 -2.18601,-5.29255 -0.12465,0 -3.39955,2.38125 -7.27758,5.29167 l -7.05096,5.29166 h -7.49789 c -5.04765,0 -7.4979,-0.0906 -7.4979,-0.27708 z m 69.43601,-0.71372 c 0.19648,-0.54646 2.87033,-7.46879 5.94188,-15.38294 3.07152,-7.91416 5.58461,-14.47544 5.58461,-14.58063 0,-0.10518 -0.73919,-0.6475 -1.64266,-1.20515 -1.9612,-1.21053 -4.60198,-3.80355 -5.45188,-5.35325 l -0.61224,-1.11639 h 29.48617 29.48615 l -1.65773,4.29948 -1.65772,4.29947 -14.5162,0.0685 -14.51618,0.0685 -1.02926,2.70963 c -0.5661,1.4903 -1.08487,2.85846 -1.15279,3.04036 -0.0978,0.2618 2.61202,0.33073 13.00166,0.33073 7.21886,0 13.121,0.0893 13.11587,0.19844 -0.005,0.10914 -0.75348,2.10344 -1.66301,4.43177 l -1.65368,4.23333 -13.23493,0.0686 -13.23494,0.0686 -1.10934,2.86552 c -0.61016,1.57604 -1.10937,2.94315 -1.10937,3.03803 0,0.0949 6.47806,0.20329 14.39569,0.24092 l 14.39566,0.0684 -1.65923,4.23334 -1.65926,4.23333 -24.10227,0.0675 -24.10227,0.0675 z m 62.39904,0.66007 c 3.39545,-8.69394 11.67,-30.08018 11.75366,-30.3783 0.0785,-0.27986 -0.38317,-0.72376 -1.42322,-1.36833 -0.84669,-0.52475 -2.06459,-1.4058 -2.70645,-1.95787 -1.15062,-0.98971 -3.46321,-3.90009 -3.46321,-4.35846 0,-0.13628 13.44375,-0.23547 31.91278,-0.23547 h 31.91277 l -0.186,1.48885 c -0.6236,4.99103 -3.07264,9.74378 -6.79974,13.19599 -1.5875,1.47042 -5.31358,4.10057 -5.80917,4.10057 -0.12684,0 -0.23064,0.11906 -0.23064,0.26459 0,0.16501 1.5434,0.26458 4.10105,0.26458 h 4.10104 v 0.73292 c 0,1.09404 -0.97923,4.41848 -1.75885,5.97126 -2.93155,5.83882 -8.61742,10.19156 -15.63997,11.97298 l -2.51277,0.63742 h -21.69023 c -17.24466,0 -21.66374,-0.0678 -21.56105,-0.33073 z m 32.16963,-9.2053 c 4.4463,-0.55752 7.32036,-2.47306 7.87553,-5.24895 l 0.16674,-0.83366 -7.60873,0.0703 -7.60872,0.0703 -1.01794,2.61639 c -0.55988,1.43901 -1.08828,2.838 -1.17424,3.10885 -0.1473,0.46404 0.0551,0.49247 3.50647,0.49247 2.01453,0 4.65195,-0.12403 5.86089,-0.27562 z m 8.86206,-15.00482 c 2.60882,-0.96665 4.42775,-2.76339 4.82912,-4.77019 l 0.17193,-0.85968 -7.60873,0.0703 -7.60873,0.0703 -1.01793,2.61639 c -0.55989,1.43902 -1.09165,2.84856 -1.18171,3.13232 -0.15944,0.50239 -0.019,0.51329 5.35165,0.41527 4.85227,-0.0886 5.70161,-0.16967 7.0644,-0.67462 z"
          />
    </g>
  </g>
</svg>
